<svg xmlns="http://www.w3.org/2000/svg" viewBox="0 0 1920 1080" width="1920" height="1080" role="presentation">

  <defs>
    <radialGradient id="wash" cx="22%" cy="12%" r="95%">
      <stop offset="0%" stop-color="#0E70F7" stop-opacity="0.55"/>
      <stop offset="45%" stop-color="#0E70F7" stop-opacity="0.18"/>
      <stop offset="100%" stop-color="#0E70F7" stop-opacity="0"/>
    </radialGradient>
    <linearGradient id="floor" x1="0" y1="1" x2="0" y2="0">
      <stop offset="0%" stop-color="#0E70F7" stop-opacity="0.16"/>
      <stop offset="100%" stop-color="#0E70F7" stop-opacity="0"/>
    </linearGradient>
    <radialGradient id="vignette" cx="50%" cy="45%" r="78%">
      <stop offset="55%" stop-color="#041E42" stop-opacity="0"/>
      <stop offset="100%" stop-color="#041E42" stop-opacity="0.8"/>
    </radialGradient>
    <linearGradient id="legibility" x1="0" y1="1" x2="0.55" y2="0">
      <stop offset="0%" stop-color="#041E42" stop-opacity="0.82"/>
      <stop offset="60%" stop-color="#041E42" stop-opacity="0.15"/>
      <stop offset="100%" stop-color="#041E42" stop-opacity="0"/>
    </linearGradient>
    <filter id="soft" x="-50%" y="-50%" width="200%" height="200%">
      <feGaussianBlur stdDeviation="18"/>
    </filter>
    <filter id="glow" x="-50%" y="-50%" width="200%" height="200%">
      <feGaussianBlur stdDeviation="6"/>
    </filter>

  </defs>
  <rect width="1920" height="1080" fill="#041E42"/>
  <rect width="1920" height="1080" fill="url(#wash)"/>
  <g><path d="M75.2 647L-103.9 647L-103.9 553.8L-461.2 553.8L-461.2 439.8" fill="none" stroke="#0E70F7" stroke-opacity="0.2" stroke-width="1.4" stroke-linejoin="round" stroke-linecap="round"/><path d="M1228.4 649.2L1063 649.2L1063 864.4L1533.4 864.4L1533.4 1034.4L1021.3 1034.4" fill="none" stroke="#0E70F7" stroke-opacity="0.2" stroke-width="1.4" stroke-linejoin="round" stroke-linecap="round"/><path d="M749.1 159L503.3 159L503.3 -128.9L935.2 -128.9L935.2 -274.3L1137.1 -274.3L1137.1 -101.1" fill="none" stroke="#0E70F7" stroke-opacity="0.2" stroke-width="1.4" stroke-linejoin="round" stroke-linecap="round"/><path d="M968.6 751.4L639.8 751.4L639.8 946.8L903.8 946.8L903.8 1135.2L1315.4 1135.2L1315.4 1272.6" fill="none" stroke="#0E70F7" stroke-opacity="0.2" stroke-width="1.4" stroke-linejoin="round" stroke-linecap="round"/><path d="M106.3 715.2L488.3 715.2L488.3 982.8L141.7 982.8L141.7 1166.1L427.2 1166.1L427.2 1369.8L850.9 1369.8" fill="none" stroke="#0E70F7" stroke-opacity="0.2" stroke-width="1.4" stroke-linejoin="round" stroke-linecap="round"/><path d="M946.3 621.6L1292.5 621.6L1292.5 396L843 396L843 621.8L693.5 621.8L693.5 848.3L307.4 848.3" fill="none" stroke="#0E70F7" stroke-opacity="0.2" stroke-width="1.4" stroke-linejoin="round" stroke-linecap="round"/><path d="M816.8 259.2L311.8 259.2L311.8 381.5L645.8 381.5L645.8 508.8L900.1 508.8" fill="none" stroke="#0E70F7" stroke-opacity="0.2" stroke-width="1.4" stroke-linejoin="round" stroke-linecap="round"/><path d="M953 312L452 312L452 527.3L851.9 527.3L851.9 237.8" fill="none" stroke="#0E70F7" stroke-opacity="0.2" stroke-width="1.4" stroke-linejoin="round" stroke-linecap="round"/><path d="M1908.4 298.7L2175.8 298.7L2175.8 32.8L1867.1 32.8L1867.1 190.3L1612.9 190.3" fill="none" stroke="#0E70F7" stroke-opacity="0.2" stroke-width="1.4" stroke-linejoin="round" stroke-linecap="round"/><path d="M577.3 758.6L966.7 758.6L966.7 894.4L613.6 894.4L613.6 617L794.2 617L794.2 740.4L290.8 740.4" fill="none" stroke="#0E70F7" stroke-opacity="0.2" stroke-width="1.4" stroke-linejoin="round" stroke-linecap="round"/><path d="M1133.4 916.5L764.6 916.5L764.6 1195.1L996.5 1195.1L996.5 1430.9L755.1 1430.9L755.1 1207" fill="none" stroke="#0E70F7" stroke-opacity="0.2" stroke-width="1.4" stroke-linejoin="round" stroke-linecap="round"/><path d="M1418 399.8L1260.8 399.8L1260.8 582.9L1725.4 582.9L1725.4 505.4L2118.3 505.4" fill="none" stroke="#0E70F7" stroke-opacity="0.2" stroke-width="1.4" stroke-linejoin="round" stroke-linecap="round"/><path d="M1041.9 305.3L533.4 305.3L533.4 399.4L936.3 399.4L936.3 500" fill="none" stroke="#0E70F7" stroke-opacity="0.2" stroke-width="1.4" stroke-linejoin="round" stroke-linecap="round"/><path d="M9.7 50.9L-285.6 50.9L-285.6 137.7L-50.7 137.7L-50.7 226.7" fill="none" stroke="#0E70F7" stroke-opacity="0.2" stroke-width="1.4" stroke-linejoin="round" stroke-linecap="round"/><path d="M241.9 523.3L76 523.3L76 355.7L-175.8 355.7L-175.8 433.7" fill="none" stroke="#0E70F7" stroke-opacity="0.2" stroke-width="1.4" stroke-linejoin="round" stroke-linecap="round"/><path d="M680 888.5L983.1 888.5L983.1 602L1408 602L1408 731.7L1027 731.7" fill="none" stroke="#0E70F7" stroke-opacity="0.2" stroke-width="1.4" stroke-linejoin="round" stroke-linecap="round"/></g>
  <g><circle cx="75.2" cy="647" r="2.6" fill="#FFFFFF" fill-opacity="0.26"/><circle cx="-103.9" cy="647" r="2.6" fill="#FFFFFF" fill-opacity="0.26"/><circle cx="-103.9" cy="553.8" r="2.6" fill="#FFFFFF" fill-opacity="0.26"/><circle cx="-461.2" cy="553.8" r="2.6" fill="#FFFFFF" fill-opacity="0.26"/><circle cx="-461.2" cy="439.8" r="2.6" fill="#FFFFFF" fill-opacity="0.26"/><circle cx="1228.4" cy="649.2" r="2.6" fill="#FFFFFF" fill-opacity="0.26"/><circle cx="1063" cy="649.2" r="2.6" fill="#FFFFFF" fill-opacity="0.26"/><circle cx="1063" cy="864.4" r="2.6" fill="#FFFFFF" fill-opacity="0.26"/><circle cx="1533.4" cy="864.4" r="2.6" fill="#FFFFFF" fill-opacity="0.26"/><circle cx="1533.4" cy="1034.4" r="2.6" fill="#FFFFFF" fill-opacity="0.26"/><circle cx="1021.3" cy="1034.4" r="2.6" fill="#FFFFFF" fill-opacity="0.26"/><circle cx="749.1" cy="159" r="2.6" fill="#FFFFFF" fill-opacity="0.26"/><circle cx="503.3" cy="159" r="2.6" fill="#FFFFFF" fill-opacity="0.26"/><circle cx="503.3" cy="-128.9" r="2.6" fill="#FFFFFF" fill-opacity="0.26"/><circle cx="935.2" cy="-128.9" r="2.6" fill="#FFFFFF" fill-opacity="0.26"/><circle cx="935.2" cy="-274.3" r="2.6" fill="#FFFFFF" fill-opacity="0.26"/><circle cx="1137.1" cy="-274.3" r="2.6" fill="#FFFFFF" fill-opacity="0.26"/><circle cx="1137.1" cy="-101.1" r="2.6" fill="#FFFFFF" fill-opacity="0.26"/><circle cx="968.6" cy="751.4" r="2.6" fill="#FFFFFF" fill-opacity="0.26"/><circle cx="639.8" cy="751.4" r="2.6" fill="#FFFFFF" fill-opacity="0.26"/><circle cx="639.8" cy="946.8" r="2.6" fill="#FFFFFF" fill-opacity="0.26"/><circle cx="903.8" cy="946.8" r="2.6" fill="#FFFFFF" fill-opacity="0.26"/><circle cx="903.8" cy="1135.2" r="2.6" fill="#FFFFFF" fill-opacity="0.26"/><circle cx="1315.4" cy="1135.2" r="2.6" fill="#FFFFFF" fill-opacity="0.26"/><circle cx="1315.4" cy="1272.6" r="2.6" fill="#FFFFFF" fill-opacity="0.26"/><circle cx="106.3" cy="715.2" r="2.6" fill="#FFFFFF" fill-opacity="0.26"/><circle cx="488.3" cy="715.2" r="2.6" fill="#FFFFFF" fill-opacity="0.26"/><circle cx="488.3" cy="982.8" r="2.6" fill="#FFFFFF" fill-opacity="0.26"/><circle cx="141.7" cy="982.8" r="2.6" fill="#FFFFFF" fill-opacity="0.26"/><circle cx="141.7" cy="1166.1" r="2.6" fill="#FFFFFF" fill-opacity="0.26"/><circle cx="427.2" cy="1166.1" r="2.6" fill="#FFFFFF" fill-opacity="0.26"/><circle cx="427.2" cy="1369.8" r="2.6" fill="#FFFFFF" fill-opacity="0.26"/><circle cx="850.9" cy="1369.8" r="2.6" fill="#FFFFFF" fill-opacity="0.26"/><circle cx="946.3" cy="621.6" r="2.6" fill="#FFFFFF" fill-opacity="0.26"/><circle cx="1292.5" cy="621.6" r="2.6" fill="#FFFFFF" fill-opacity="0.26"/><circle cx="1292.5" cy="396" r="2.6" fill="#FFFFFF" fill-opacity="0.26"/><circle cx="843" cy="396" r="2.6" fill="#FFFFFF" fill-opacity="0.26"/><circle cx="843" cy="621.8" r="2.6" fill="#FFFFFF" fill-opacity="0.26"/><circle cx="693.5" cy="621.8" r="2.6" fill="#FFFFFF" fill-opacity="0.26"/><circle cx="693.5" cy="848.3" r="2.6" fill="#FFFFFF" fill-opacity="0.26"/><circle cx="307.4" cy="848.3" r="2.6" fill="#FFFFFF" fill-opacity="0.26"/><circle cx="816.8" cy="259.2" r="2.6" fill="#FFFFFF" fill-opacity="0.26"/><circle cx="311.8" cy="259.2" r="2.6" fill="#FFFFFF" fill-opacity="0.26"/><circle cx="311.8" cy="381.5" r="2.6" fill="#FFFFFF" fill-opacity="0.26"/><circle cx="645.8" cy="381.5" r="2.6" fill="#FFFFFF" fill-opacity="0.26"/><circle cx="645.8" cy="508.8" r="2.6" fill="#FFFFFF" fill-opacity="0.26"/><circle cx="900.1" cy="508.8" r="2.6" fill="#FFFFFF" fill-opacity="0.26"/><circle cx="953" cy="312" r="2.6" fill="#FFFFFF" fill-opacity="0.26"/><circle cx="452" cy="312" r="2.6" fill="#FFFFFF" fill-opacity="0.26"/><circle cx="452" cy="527.3" r="2.6" fill="#FFFFFF" fill-opacity="0.26"/><circle cx="851.9" cy="527.3" r="2.6" fill="#FFFFFF" fill-opacity="0.26"/><circle cx="851.9" cy="237.8" r="2.6" fill="#FFFFFF" fill-opacity="0.26"/><circle cx="1908.4" cy="298.7" r="2.6" fill="#FFFFFF" fill-opacity="0.26"/><circle cx="2175.8" cy="298.7" r="2.6" fill="#FFFFFF" fill-opacity="0.26"/><circle cx="2175.8" cy="32.8" r="2.6" fill="#FFFFFF" fill-opacity="0.26"/><circle cx="1867.1" cy="32.8" r="2.6" fill="#FFFFFF" fill-opacity="0.26"/><circle cx="1867.1" cy="190.3" r="2.6" fill="#FFFFFF" fill-opacity="0.26"/><circle cx="1612.9" cy="190.3" r="2.6" fill="#FFFFFF" fill-opacity="0.26"/><circle cx="577.3" cy="758.6" r="2.6" fill="#FFFFFF" fill-opacity="0.26"/><circle cx="966.7" cy="758.6" r="2.6" fill="#FFFFFF" fill-opacity="0.26"/><circle cx="966.7" cy="894.4" r="2.6" fill="#FFFFFF" fill-opacity="0.26"/><circle cx="613.6" cy="894.4" r="2.6" fill="#FFFFFF" fill-opacity="0.26"/><circle cx="613.6" cy="617" r="2.6" fill="#FFFFFF" fill-opacity="0.26"/><circle cx="794.2" cy="617" r="2.6" fill="#FFFFFF" fill-opacity="0.26"/><circle cx="794.2" cy="740.4" r="2.6" fill="#FFFFFF" fill-opacity="0.26"/><circle cx="290.8" cy="740.4" r="2.6" fill="#FFFFFF" fill-opacity="0.26"/><circle cx="1133.4" cy="916.5" r="2.6" fill="#FFFFFF" fill-opacity="0.26"/><circle cx="764.6" cy="916.5" r="2.6" fill="#FFFFFF" fill-opacity="0.26"/><circle cx="764.6" cy="1195.1" r="2.6" fill="#FFFFFF" fill-opacity="0.26"/><circle cx="996.5" cy="1195.1" r="2.6" fill="#FFFFFF" fill-opacity="0.26"/><circle cx="996.5" cy="1430.9" r="2.6" fill="#FFFFFF" fill-opacity="0.26"/><circle cx="755.1" cy="1430.9" r="2.6" fill="#FFFFFF" fill-opacity="0.26"/><circle cx="755.1" cy="1207" r="2.6" fill="#FFFFFF" fill-opacity="0.26"/><circle cx="1418" cy="399.8" r="2.6" fill="#FFFFFF" fill-opacity="0.26"/><circle cx="1260.8" cy="399.8" r="2.6" fill="#FFFFFF" fill-opacity="0.26"/><circle cx="1260.8" cy="582.9" r="2.6" fill="#FFFFFF" fill-opacity="0.26"/><circle cx="1725.4" cy="582.9" r="2.6" fill="#FFFFFF" fill-opacity="0.26"/><circle cx="1725.4" cy="505.4" r="2.6" fill="#FFFFFF" fill-opacity="0.26"/><circle cx="2118.3" cy="505.4" r="2.6" fill="#FFFFFF" fill-opacity="0.26"/><circle cx="1041.9" cy="305.3" r="2.6" fill="#FFFFFF" fill-opacity="0.26"/><circle cx="533.4" cy="305.3" r="2.6" fill="#FFFFFF" fill-opacity="0.26"/><circle cx="533.4" cy="399.4" r="2.6" fill="#FFFFFF" fill-opacity="0.26"/><circle cx="936.3" cy="399.4" r="2.6" fill="#FFFFFF" fill-opacity="0.26"/><circle cx="936.3" cy="500" r="2.6" fill="#FFFFFF" fill-opacity="0.26"/><circle cx="9.7" cy="50.9" r="2.6" fill="#FFFFFF" fill-opacity="0.26"/><circle cx="-285.6" cy="50.9" r="2.6" fill="#FFFFFF" fill-opacity="0.26"/><circle cx="-285.6" cy="137.7" r="2.6" fill="#FFFFFF" fill-opacity="0.26"/><circle cx="-50.7" cy="137.7" r="2.6" fill="#FFFFFF" fill-opacity="0.26"/><circle cx="-50.7" cy="226.7" r="2.6" fill="#FFFFFF" fill-opacity="0.26"/><circle cx="241.9" cy="523.3" r="2.6" fill="#FFFFFF" fill-opacity="0.26"/><circle cx="76" cy="523.3" r="2.6" fill="#FFFFFF" fill-opacity="0.26"/><circle cx="76" cy="355.7" r="2.6" fill="#FFFFFF" fill-opacity="0.26"/><circle cx="-175.8" cy="355.7" r="2.6" fill="#FFFFFF" fill-opacity="0.26"/><circle cx="-175.8" cy="433.7" r="2.6" fill="#FFFFFF" fill-opacity="0.26"/><circle cx="680" cy="888.5" r="2.6" fill="#FFFFFF" fill-opacity="0.26"/><circle cx="983.1" cy="888.5" r="2.6" fill="#FFFFFF" fill-opacity="0.26"/><circle cx="983.1" cy="602" r="2.6" fill="#FFFFFF" fill-opacity="0.26"/><circle cx="1408" cy="602" r="2.6" fill="#FFFFFF" fill-opacity="0.26"/><circle cx="1408" cy="731.7" r="2.6" fill="#FFFFFF" fill-opacity="0.26"/><circle cx="1027" cy="731.7" r="2.6" fill="#FFFFFF" fill-opacity="0.26"/></g>
  <g><circle cx="-461.2" cy="553.8" r="30" fill="#0E70F7" fill-opacity="0.45" filter="url(#soft)"/>
    <circle cx="-461.2" cy="553.8" r="3.6" fill="#0E70F7"/><circle cx="1021.3" cy="1034.4" r="30" fill="#0E70F7" fill-opacity="0.45" filter="url(#soft)"/>
    <circle cx="1021.3" cy="1034.4" r="3.6" fill="#0E70F7"/><circle cx="1137.1" cy="-274.3" r="30" fill="#0E70F7" fill-opacity="0.45" filter="url(#soft)"/>
    <circle cx="1137.1" cy="-274.3" r="3.6" fill="#0E70F7"/><circle cx="1315.4" cy="1135.2" r="30" fill="#0E70F7" fill-opacity="0.45" filter="url(#soft)"/>
    <circle cx="1315.4" cy="1135.2" r="3.6" fill="#0E70F7"/><circle cx="427.2" cy="1166.1" r="30" fill="#0E70F7" fill-opacity="0.45" filter="url(#soft)"/>
    <circle cx="427.2" cy="1166.1" r="3.6" fill="#0E70F7"/><circle cx="693.5" cy="621.8" r="30" fill="#0E70F7" fill-opacity="0.45" filter="url(#soft)"/>
    <circle cx="693.5" cy="621.8" r="3.6" fill="#0E70F7"/><circle cx="311.8" cy="259.2" r="30" fill="#0E70F7" fill-opacity="0.45" filter="url(#soft)"/>
    <circle cx="311.8" cy="259.2" r="3.6" fill="#0E70F7"/><circle cx="452" cy="312" r="30" fill="#0E70F7" fill-opacity="0.45" filter="url(#soft)"/>
    <circle cx="452" cy="312" r="3.6" fill="#0E70F7"/><circle cx="1867.1" cy="32.8" r="30" fill="#0E70F7" fill-opacity="0.45" filter="url(#soft)"/>
    <circle cx="1867.1" cy="32.8" r="3.6" fill="#0E70F7"/><circle cx="290.8" cy="740.4" r="30" fill="#0E70F7" fill-opacity="0.45" filter="url(#soft)"/>
    <circle cx="290.8" cy="740.4" r="3.6" fill="#0E70F7"/><circle cx="764.6" cy="1195.1" r="30" fill="#0E70F7" fill-opacity="0.45" filter="url(#soft)"/>
    <circle cx="764.6" cy="1195.1" r="3.6" fill="#0E70F7"/><circle cx="1260.8" cy="582.9" r="30" fill="#0E70F7" fill-opacity="0.45" filter="url(#soft)"/>
    <circle cx="1260.8" cy="582.9" r="3.6" fill="#0E70F7"/><circle cx="533.4" cy="399.4" r="30" fill="#0E70F7" fill-opacity="0.45" filter="url(#soft)"/>
    <circle cx="533.4" cy="399.4" r="3.6" fill="#0E70F7"/><circle cx="-285.6" cy="137.7" r="30" fill="#0E70F7" fill-opacity="0.45" filter="url(#soft)"/>
    <circle cx="-285.6" cy="137.7" r="3.6" fill="#0E70F7"/><circle cx="-175.8" cy="433.7" r="30" fill="#0E70F7" fill-opacity="0.45" filter="url(#soft)"/>
    <circle cx="-175.8" cy="433.7" r="3.6" fill="#0E70F7"/><circle cx="983.1" cy="602" r="30" fill="#0E70F7" fill-opacity="0.45" filter="url(#soft)"/>
    <circle cx="983.1" cy="602" r="3.6" fill="#0E70F7"/></g>
  <rect width="1920" height="1080" fill="url(#vignette)"/>
  <rect width="1920" height="1080" fill="url(#legibility)"/>
</svg>
