<svg xmlns="http://www.w3.org/2000/svg" viewBox="0 0 1920 1080" width="1920" height="1080" role="presentation">

  <defs>
    <radialGradient id="wash" cx="22%" cy="12%" r="95%">
      <stop offset="0%" stop-color="#0E70F7" stop-opacity="0.55"/>
      <stop offset="45%" stop-color="#0E70F7" stop-opacity="0.18"/>
      <stop offset="100%" stop-color="#0E70F7" stop-opacity="0"/>
    </radialGradient>
    <linearGradient id="floor" x1="0" y1="1" x2="0" y2="0">
      <stop offset="0%" stop-color="#0E70F7" stop-opacity="0.16"/>
      <stop offset="100%" stop-color="#0E70F7" stop-opacity="0"/>
    </linearGradient>
    <radialGradient id="vignette" cx="50%" cy="45%" r="78%">
      <stop offset="55%" stop-color="#041E42" stop-opacity="0"/>
      <stop offset="100%" stop-color="#041E42" stop-opacity="0.8"/>
    </radialGradient>
    <linearGradient id="legibility" x1="0" y1="1" x2="0.55" y2="0">
      <stop offset="0%" stop-color="#041E42" stop-opacity="0.82"/>
      <stop offset="60%" stop-color="#041E42" stop-opacity="0.15"/>
      <stop offset="100%" stop-color="#041E42" stop-opacity="0"/>
    </linearGradient>
    <filter id="soft" x="-50%" y="-50%" width="200%" height="200%">
      <feGaussianBlur stdDeviation="18"/>
    </filter>
    <filter id="glow" x="-50%" y="-50%" width="200%" height="200%">
      <feGaussianBlur stdDeviation="6"/>
    </filter>
    <linearGradient id="band" x1="0" y1="0" x2="0" y2="1">
      <stop offset="0%" stop-color="#0E70F7" stop-opacity="0"/>
      <stop offset="50%" stop-color="#0E70F7" stop-opacity="0.2"/>
      <stop offset="100%" stop-color="#0E70F7" stop-opacity="0"/>
    </linearGradient>
  </defs>
  <rect width="1920" height="1080" fill="#041E42"/>
  <rect width="1920" height="1080" fill="url(#wash)"/>
  <g stroke="#0E70F7" stroke-opacity="0.22" stroke-width="1.2"><path d="M-5.3 0.7H8.7M1.7 -6.3V7.7"/><path d="M75.1 -10.4H89.1M82.1 -17.4V-3.4"/><path d="M173.2 4.9H187.2M180.2 -2.1V11.9"/><path d="M250.5 -1.5H264.5M257.5 -8.5V5.5"/><path d="M345.8 0.2H359.8M352.8 -6.8V7.2"/><path d="M424.6 1.5H438.6M431.6 -5.5V8.5"/><path d="M500.6 10.7H514.6M507.6 3.7V17.7"/><path d="M586.5 -9.7H600.5M593.5 -16.7V-2.7"/><path d="M672.9 -8.3H686.9M679.9 -15.3V-1.3"/><path d="M765.4 3.5H779.4M772.4 -3.5V10.5"/><path d="M859.4 -2.1H873.4M866.4 -9.1V4.9"/><path d="M930.5 -10.8H944.5M937.5 -17.8V-3.8"/><path d="M1023.2 9.2H1037.2M1030.2 2.2V16.2"/><path d="M1100.8 3.8H1114.8M1107.8 -3.2V10.8"/><path d="M1205.5 7.2H1219.5M1212.5 0.2V14.2"/><path d="M1288.1 -3.4H1302.1M1295.1 -10.4V3.6"/><path d="M1364.9 0.2H1378.9M1371.9 -6.8V7.2"/><path d="M1447.2 6.4H1461.2M1454.2 -0.6V13.4"/><path d="M1531.7 -0.1H1545.7M1538.7 -7.1V6.9"/><path d="M1630.5 -7H1644.5M1637.5 -14V0"/><path d="M1706.1 5.1H1720.1M1713.1 -1.9V12.1"/><path d="M1790.6 9.4H1804.6M1797.6 2.4V16.4"/><path d="M1877.9 -5.4H1891.9M1884.9 -12.4V1.6"/><path d="M1977 -0.3H1991M1984 -7.3V6.7"/><path d="M0.6 78.1H14.6M7.6 71.1V85.1"/><path d="M85.4 94.7H99.4M92.4 87.7V101.7"/><path d="M174 87.8H188M181 80.8V94.8"/><path d="M245.8 88.3H259.8M252.8 81.3V95.3"/><path d="M339 76.3H353M346 69.3V83.3"/><path d="M412.3 78.4H426.3M419.3 71.4V85.4"/><path d="M517.8 85.9H531.8M524.8 78.9V92.9"/><path d="M596.9 87.3H610.9M603.9 80.3V94.3"/><path d="M681.6 82.5H695.6M688.6 75.5V89.5"/><path d="M762.2 78.3H776.2M769.2 71.3V85.3"/><path d="M844.7 94.6H858.7M851.7 87.6V101.6"/><path d="M931.9 78.2H945.9M938.9 71.2V85.2"/><path d="M1029.9 92.3H1043.9M1036.9 85.3V99.3"/><path d="M1106.2 85.6H1120.2M1113.2 78.6V92.6"/><path d="M1187.2 75.5H1201.2M1194.2 68.5V82.5"/><path d="M1284.2 95.4H1298.2M1291.2 88.4V102.4"/><path d="M1363.8 77.3H1377.8M1370.8 70.3V84.3"/><path d="M1462.3 86.8H1476.3M1469.3 79.8V93.8"/><path d="M1549.6 85H1563.6M1556.6 78V92"/><path d="M1632.7 88.3H1646.7M1639.7 81.3V95.3"/><path d="M1715.8 79.4H1729.8M1722.8 72.4V86.4"/><path d="M1788.8 95.4H1802.8M1795.8 88.4V102.4"/><path d="M1894.3 92.5H1908.3M1901.3 85.5V99.5"/><path d="M1975.9 94.8H1989.9M1982.9 87.8V101.8"/><path d="M-11.3 170.8H2.7M-4.3 163.8V177.8"/><path d="M75.5 164.5H89.5M82.5 157.5V171.5"/><path d="M165.8 164.8H179.8M172.8 157.8V171.8"/><path d="M249.3 174.6H263.3M256.3 167.6V181.6"/><path d="M342.1 174.1H356.1M349.1 167.1V181.1"/><path d="M412.7 170.9H426.7M419.7 163.9V177.9"/><path d="M514.2 179.5H528.2M521.2 172.5V186.5"/><path d="M586.6 163.2H600.6M593.6 156.2V170.2"/><path d="M684.5 162.5H698.5M691.5 155.5V169.5"/><path d="M766.5 163.6H780.5M773.5 156.6V170.6"/><path d="M847.5 163.5H861.5M854.5 156.5V170.5"/><path d="M940.7 179.1H954.7M947.7 172.1V186.1"/><path d="M1019.4 175.1H1033.4M1026.4 168.1V182.1"/><path d="M1110.5 182.7H1124.5M1117.5 175.7V189.7"/><path d="M1187.7 182H1201.7M1194.7 175V189"/><path d="M1280.1 168.8H1294.1M1287.1 161.8V175.8"/><path d="M1379 167.2H1393M1386 160.2V174.2"/><path d="M1464.5 182.3H1478.5M1471.5 175.3V189.3"/><path d="M1540 180.6H1554M1547 173.6V187.6"/><path d="M1626.7 168.3H1640.7M1633.7 161.3V175.3"/><path d="M1708 165.6H1722M1715 158.6V172.6"/><path d="M1804.7 173.1H1818.7M1811.7 166.1V180.1"/><path d="M1895.1 171.8H1909.1M1902.1 164.8V178.8"/><path d="M1981.5 179.3H1995.5M1988.5 172.3V186.3"/><path d="M-7 266.1H7M0 259.1V273.1"/><path d="M86.2 257.9H100.2M93.2 250.9V264.9"/><path d="M157 247.6H171M164 240.6V254.6"/><path d="M241 264.5H255M248 257.5V271.5"/><path d="M342.2 255.5H356.2M349.2 248.5V262.5"/><path d="M428.6 266.5H442.6M435.6 259.5V273.5"/><path d="M498.9 248.5H512.9M505.9 241.5V255.5"/><path d="M593.5 264.5H607.5M600.5 257.5V271.5"/><path d="M688.4 267.6H702.4M695.4 260.6V274.6"/><path d="M761.1 261.9H775.1M768.1 254.9V268.9"/><path d="M844.4 255.3H858.4M851.4 248.3V262.3"/><path d="M940.5 260.5H954.5M947.5 253.5V267.5"/><path d="M1033 257.3H1047M1040 250.3V264.3"/><path d="M1114.8 257.9H1128.8M1121.8 250.9V264.9"/><path d="M1192.1 263.1H1206.1M1199.1 256.1V270.1"/><path d="M1288 265.9H1302M1295 258.9V272.9"/><path d="M1364.7 264.1H1378.7M1371.7 257.1V271.1"/><path d="M1444.3 255.9H1458.3M1451.3 248.9V262.9"/><path d="M1545.3 250H1559.3M1552.3 243V257"/><path d="M1634.2 249.6H1648.2M1641.2 242.6V256.6"/><path d="M1705.2 269.1H1719.2M1712.2 262.1V276.1"/><path d="M1791.3 253.7H1805.3M1798.3 246.7V260.7"/><path d="M1886.5 252.8H1900.5M1893.5 245.8V259.8"/><path d="M1978.8 257.8H1992.8M1985.8 250.8V264.8"/><path d="M-14.5 334.4H-0.5M-7.5 327.4V341.4"/><path d="M88.4 352.9H102.4M95.4 345.9V359.9"/><path d="M168 342.4H182M175 335.4V349.4"/><path d="M241.9 354H255.9M248.9 347V361"/><path d="M338 340.5H352M345 333.5V347.5"/><path d="M425.6 353H439.6M432.6 346V360"/><path d="M503.5 354.9H517.5M510.5 347.9V361.9"/><path d="M583.9 341.5H597.9M590.9 334.5V348.5"/><path d="M690 337.4H704M697 330.4V344.4"/><path d="M768 345.6H782M775 338.6V352.6"/><path d="M846.7 338.9H860.7M853.7 331.9V345.9"/><path d="M934.5 348.9H948.5M941.5 341.9V355.9"/><path d="M1033.3 339.1H1047.3M1040.3 332.1V346.1"/><path d="M1105.5 342.5H1119.5M1112.5 335.5V349.5"/><path d="M1193.4 347.1H1207.4M1200.4 340.1V354.1"/><path d="M1277.7 341.3H1291.7M1284.7 334.3V348.3"/><path d="M1371.7 343.5H1385.7M1378.7 336.5V350.5"/><path d="M1460.3 344.3H1474.3M1467.3 337.3V351.3"/><path d="M1545.6 343.7H1559.6M1552.6 336.7V350.7"/><path d="M1636.8 345.4H1650.8M1643.8 338.4V352.4"/><path d="M1702.8 348.4H1716.8M1709.8 341.4V355.4"/><path d="M1803 340.7H1817M1810 333.7V347.7"/><path d="M1888.2 340.5H1902.2M1895.2 333.5V347.5"/><path d="M1974.9 341H1988.9M1981.9 334V348"/><path d="M-5.8 430.6H8.2M1.2 423.6V437.6"/><path d="M77.8 431.3H91.8M84.8 424.3V438.3"/><path d="M166.1 433.6H180.1M173.1 426.6V440.6"/><path d="M252.5 432.9H266.5M259.5 425.9V439.9"/><path d="M327.7 437.4H341.7M334.7 430.4V444.4"/><path d="M423.5 422.3H437.5M430.5 415.3V429.3"/><path d="M514.4 430.2H528.4M521.4 423.2V437.2"/><path d="M597.7 419.5H611.7M604.7 412.5V426.5"/><path d="M692.1 433.2H706.1M699.1 426.2V440.2"/><path d="M761.2 419.1H775.2M768.2 412.1V426.1"/><path d="M854.3 428.5H868.3M861.3 421.5V435.5"/><path d="M929.1 439H943.1M936.1 432V446"/><path d="M1019 422.2H1033M1026 415.2V429.2"/><path d="M1105 422.5H1119M1112 415.5V429.5"/><path d="M1187.4 436.8H1201.4M1194.4 429.8V443.8"/><path d="M1273.1 428.8H1287.1M1280.1 421.8V435.8"/><path d="M1374.3 439H1388.3M1381.3 432V446"/><path d="M1443.8 439.9H1457.8M1450.8 432.9V446.9"/><path d="M1549.6 439.5H1563.6M1556.6 432.5V446.5"/><path d="M1635.4 431.9H1649.4M1642.4 424.9V438.9"/><path d="M1713.9 440.8H1727.9M1720.9 433.8V447.8"/><path d="M1796 434.8H1810M1803 427.8V441.8"/><path d="M1883.2 429.1H1897.2M1890.2 422.1V436.1"/><path d="M1977.5 430.2H1991.5M1984.5 423.2V437.2"/><path d="M-5.7 507.1H8.3M1.3 500.1V514.1"/><path d="M83.8 505.7H97.8M90.8 498.7V512.7"/><path d="M159.5 519.8H173.5M166.5 512.8V526.8"/><path d="M253.1 522.6H267.1M260.1 515.6V529.6"/><path d="M340.2 521.4H354.2M347.2 514.4V528.4"/><path d="M433.5 515.6H447.5M440.5 508.6V522.6"/><path d="M513.3 506.5H527.3M520.3 499.5V513.5"/><path d="M602.3 516.9H616.3M609.3 509.9V523.9"/><path d="M688.4 522H702.4M695.4 515V529"/><path d="M774.4 517.8H788.4M781.4 510.8V524.8"/><path d="M847.1 526.7H861.1M854.1 519.7V533.7"/><path d="M943.1 525.3H957.1M950.1 518.3V532.3"/><path d="M1029.3 507.9H1043.3M1036.3 500.9V514.9"/><path d="M1107.7 508.4H1121.7M1114.7 501.4V515.4"/><path d="M1207.4 521.8H1221.4M1214.4 514.8V528.8"/><path d="M1272.2 523.9H1286.2M1279.2 516.9V530.9"/><path d="M1358 505.9H1372M1365 498.9V512.9"/><path d="M1450.4 515.5H1464.4M1457.4 508.5V522.5"/><path d="M1545.9 521.8H1559.9M1552.9 514.8V528.8"/><path d="M1632 513.2H1646M1639 506.2V520.2"/><path d="M1708.8 524.3H1722.8M1715.8 517.3V531.3"/><path d="M1806.8 507.4H1820.8M1813.8 500.4V514.4"/><path d="M1879.4 513.8H1893.4M1886.4 506.8V520.8"/><path d="M1964.2 522.4H1978.2M1971.2 515.4V529.4"/><path d="M-7.5 591.8H6.5M-0.5 584.8V598.8"/><path d="M86.6 591.8H100.6M93.6 584.8V598.8"/><path d="M170.8 596H184.8M177.8 589V603"/><path d="M250.6 590.9H264.6M257.6 583.9V597.9"/><path d="M334.9 601.7H348.9M341.9 594.7V608.7"/><path d="M428.2 604.7H442.2M435.2 597.7V611.7"/><path d="M499.9 612.1H513.9M506.9 605.1V619.1"/><path d="M603.6 595.6H617.6M610.6 588.6V602.6"/><path d="M682.6 596.8H696.6M689.6 589.8V603.8"/><path d="M767.8 608.4H781.8M774.8 601.4V615.4"/><path d="M859.3 602.9H873.3M866.3 595.9V609.9"/><path d="M941.5 595.2H955.5M948.5 588.2V602.2"/><path d="M1025.6 600.1H1039.6M1032.6 593.1V607.1"/><path d="M1100.2 598.7H1114.2M1107.2 591.7V605.7"/><path d="M1202.7 598.7H1216.7M1209.7 591.7V605.7"/><path d="M1294.1 592.7H1308.1M1301.1 585.7V599.7"/><path d="M1359.9 594.9H1373.9M1366.9 587.9V601.9"/><path d="M1448.5 603.2H1462.5M1455.5 596.2V610.2"/><path d="M1535.6 591.1H1549.6M1542.6 584.1V598.1"/><path d="M1620.1 600.7H1634.1M1627.1 593.7V607.7"/><path d="M1707.7 604.1H1721.7M1714.7 597.1V611.1"/><path d="M1809.3 602.7H1823.3M1816.3 595.7V609.7"/><path d="M1883.6 592H1897.6M1890.6 585V599"/><path d="M1978.7 609.3H1992.7M1985.7 602.3V616.3"/><path d="M2.3 682.6H16.3M9.3 675.6V689.6"/><path d="M76.2 680.9H90.2M83.2 673.9V687.9"/><path d="M175.3 678.5H189.3M182.3 671.5V685.5"/><path d="M241.8 680.4H255.8M248.8 673.4V687.4"/><path d="M333.1 681.4H347.1M340.1 674.4V688.4"/><path d="M415.5 698.3H429.5M422.5 691.3V705.3"/><path d="M500.3 688.2H514.3M507.3 681.2V695.2"/><path d="M590.6 684.5H604.6M597.6 677.5V691.5"/><path d="M691 690.7H705M698 683.7V697.7"/><path d="M777.2 691.7H791.2M784.2 684.7V698.7"/><path d="M861 690.4H875M868 683.4V697.4"/><path d="M936.8 691.3H950.8M943.8 684.3V698.3"/><path d="M1032.2 696.7H1046.2M1039.2 689.7V703.7"/><path d="M1110.7 678.7H1124.7M1117.7 671.7V685.7"/><path d="M1187.5 678.5H1201.5M1194.5 671.5V685.5"/><path d="M1278.9 682.1H1292.9M1285.9 675.1V689.1"/><path d="M1374.4 685.2H1388.4M1381.4 678.2V692.2"/><path d="M1449.9 684.9H1463.9M1456.9 677.9V691.9"/><path d="M1538.3 696.4H1552.3M1545.3 689.4V703.4"/><path d="M1623.1 691.5H1637.1M1630.1 684.5V698.5"/><path d="M1712.3 685.4H1726.3M1719.3 678.4V692.4"/><path d="M1806.2 694.6H1820.2M1813.2 687.6V701.6"/><path d="M1883.3 697.3H1897.3M1890.3 690.3V704.3"/><path d="M1975.3 686.5H1989.3M1982.3 679.5V693.5"/><path d="M3.6 782.5H17.6M10.6 775.5V789.5"/><path d="M80.8 764.3H94.8M87.8 757.3V771.3"/><path d="M155.8 772.1H169.8M162.8 765.1V779.1"/><path d="M255.6 784.3H269.6M262.6 777.3V791.3"/><path d="M326.2 781.6H340.2M333.2 774.6V788.6"/><path d="M417.2 774.4H431.2M424.2 767.4V781.4"/><path d="M497.8 765.4H511.8M504.8 758.4V772.4"/><path d="M601.6 773H615.6M608.6 766V780"/><path d="M681.1 779.8H695.1M688.1 772.8V786.8"/><path d="M771.5 777.3H785.5M778.5 770.3V784.3"/><path d="M851.7 764H865.7M858.7 757V771"/><path d="M934.4 783.8H948.4M941.4 776.8V790.8"/><path d="M1024.1 773.5H1038.1M1031.1 766.5V780.5"/><path d="M1111.9 769.4H1125.9M1118.9 762.4V776.4"/><path d="M1202.9 763.1H1216.9M1209.9 756.1V770.1"/><path d="M1285.4 768.5H1299.4M1292.4 761.5V775.5"/><path d="M1378 769H1392M1385 762V776"/><path d="M1445.8 778H1459.8M1452.8 771V785"/><path d="M1536.4 773H1550.4M1543.4 766V780"/><path d="M1629.7 777.5H1643.7M1636.7 770.5V784.5"/><path d="M1707.3 781.5H1721.3M1714.3 774.5V788.5"/><path d="M1802.4 773.5H1816.4M1809.4 766.5V780.5"/><path d="M1882.7 765.5H1896.7M1889.7 758.5V772.5"/><path d="M1968.2 768.6H1982.2M1975.2 761.6V775.6"/><path d="M-5.4 854.4H8.6M1.6 847.4V861.4"/><path d="M90 862.7H104M97 855.7V869.7"/><path d="M164.3 858.5H178.3M171.3 851.5V865.5"/><path d="M241.1 852.6H255.1M248.1 845.6V859.6"/><path d="M330.5 853.5H344.5M337.5 846.5V860.5"/><path d="M416.4 859.6H430.4M423.4 852.6V866.6"/><path d="M501.7 855.6H515.7M508.7 848.6V862.6"/><path d="M601.7 869.2H615.7M608.7 862.2V876.2"/><path d="M672.2 865.1H686.2M679.2 858.1V872.1"/><path d="M766.8 870.1H780.8M773.8 863.1V877.1"/><path d="M849.5 849.1H863.5M856.5 842.1V856.1"/><path d="M946.4 856.8H960.4M953.4 849.8V863.8"/><path d="M1023.1 852.4H1037.1M1030.1 845.4V859.4"/><path d="M1110.7 867.2H1124.7M1117.7 860.2V874.2"/><path d="M1198 856.4H1212M1205 849.4V863.4"/><path d="M1289.4 870.6H1303.4M1296.4 863.6V877.6"/><path d="M1358.7 851H1372.7M1365.7 844V858"/><path d="M1450.7 849.2H1464.7M1457.7 842.2V856.2"/><path d="M1545.1 868.6H1559.1M1552.1 861.6V875.6"/><path d="M1629.5 870.2H1643.5M1636.5 863.2V877.2"/><path d="M1704.6 851.5H1718.6M1711.6 844.5V858.5"/><path d="M1806.7 853.1H1820.7M1813.7 846.1V860.1"/><path d="M1879.2 850.7H1893.2M1886.2 843.7V857.7"/><path d="M1974.9 870.7H1988.9M1981.9 863.7V877.7"/><path d="M3.9 940.4H17.9M10.9 933.4V947.4"/><path d="M72.2 954H86.2M79.2 947V961"/><path d="M167.2 941.2H181.2M174.2 934.2V948.2"/><path d="M243 935.5H257M250 928.5V942.5"/><path d="M332.1 946.2H346.1M339.1 939.2V953.2"/><path d="M429.3 939.3H443.3M436.3 932.3V946.3"/><path d="M515.8 949.9H529.8M522.8 942.9V956.9"/><path d="M599 943.7H613M606 936.7V950.7"/><path d="M680.1 956.2H694.1M687.1 949.2V963.2"/><path d="M761.4 948.3H775.4M768.4 941.3V955.3"/><path d="M847 941.6H861M854 934.6V948.6"/><path d="M928.9 956.3H942.9M935.9 949.3V963.3"/><path d="M1020.2 944.9H1034.2M1027.2 937.9V951.9"/><path d="M1106.7 937.6H1120.7M1113.7 930.6V944.6"/><path d="M1194.2 939.4H1208.2M1201.2 932.4V946.4"/><path d="M1272.3 936.7H1286.3M1279.3 929.7V943.7"/><path d="M1370.4 941.4H1384.4M1377.4 934.4V948.4"/><path d="M1462 942.1H1476M1469 935.1V949.1"/><path d="M1543 947.4H1557M1550 940.4V954.4"/><path d="M1622.5 936.2H1636.5M1629.5 929.2V943.2"/><path d="M1716 947.1H1730M1723 940.1V954.1"/><path d="M1789.8 949.8H1803.8M1796.8 942.8V956.8"/><path d="M1893.7 956.1H1907.7M1900.7 949.1V963.1"/><path d="M1975.4 935.4H1989.4M1982.4 928.4V942.4"/><path d="M-2.2 1026.2H11.8M4.8 1019.2V1033.2"/><path d="M83.4 1036.7H97.4M90.4 1029.7V1043.7"/><path d="M166.7 1021.2H180.7M173.7 1014.2V1028.2"/><path d="M242.3 1027.5H256.3M249.3 1020.5V1034.5"/><path d="M326.4 1040.2H340.4M333.4 1033.2V1047.2"/><path d="M429.6 1026.2H443.6M436.6 1019.2V1033.2"/><path d="M506.3 1032H520.3M513.3 1025V1039"/><path d="M602.9 1033.4H616.9M609.9 1026.4V1040.4"/><path d="M691.2 1043.1H705.2M698.2 1036.1V1050.1"/><path d="M768.6 1028.7H782.6M775.6 1021.7V1035.7"/><path d="M848 1033.6H862M855 1026.6V1040.6"/><path d="M943.2 1026.8H957.2M950.2 1019.8V1033.8"/><path d="M1027.8 1030H1041.8M1034.8 1023V1037"/><path d="M1101 1032.9H1115M1108 1025.9V1039.9"/><path d="M1206.3 1040.4H1220.3M1213.3 1033.4V1047.4"/><path d="M1278.6 1027.8H1292.6M1285.6 1020.8V1034.8"/><path d="M1365.5 1024.2H1379.5M1372.5 1017.2V1031.2"/><path d="M1464.3 1035.4H1478.3M1471.3 1028.4V1042.4"/><path d="M1529.9 1039.8H1543.9M1536.9 1032.8V1046.8"/><path d="M1616.3 1023.1H1630.3M1623.3 1016.1V1030.1"/><path d="M1717.8 1039.8H1731.8M1724.8 1032.8V1046.8"/><path d="M1801.7 1033.6H1815.7M1808.7 1026.6V1040.6"/><path d="M1892.2 1037H1906.2M1899.2 1030V1044"/><path d="M1962.6 1033.2H1976.6M1969.6 1026.2V1040.2"/><path d="M-18 1115H-4M-11 1108V1122"/><path d="M82.7 1127.9H96.7M89.7 1120.9V1134.9"/><path d="M174.1 1119.8H188.1M181.1 1112.8V1126.8"/><path d="M252.4 1111.6H266.4M259.4 1104.6V1118.6"/><path d="M327.5 1112.7H341.5M334.5 1105.7V1119.7"/><path d="M418.1 1128.2H432.1M425.1 1121.2V1135.2"/><path d="M515.7 1117.5H529.7M522.7 1110.5V1124.5"/><path d="M584.1 1125.5H598.1M591.1 1118.5V1132.5"/><path d="M671.6 1120H685.6M678.6 1113V1127"/><path d="M769.2 1116.4H783.2M776.2 1109.4V1123.4"/><path d="M852.9 1118.2H866.9M859.9 1111.2V1125.2"/><path d="M944.8 1113.5H958.8M951.8 1106.5V1120.5"/><path d="M1015 1116.5H1029M1022 1109.5V1123.5"/><path d="M1106.4 1116.7H1120.4M1113.4 1109.7V1123.7"/><path d="M1196.5 1125.4H1210.5M1203.5 1118.4V1132.4"/><path d="M1279.2 1120.4H1293.2M1286.2 1113.4V1127.4"/><path d="M1360.9 1124.6H1374.9M1367.9 1117.6V1131.6"/><path d="M1461.7 1126.1H1475.7M1468.7 1119.1V1133.1"/><path d="M1545.2 1119.8H1559.2M1552.2 1112.8V1126.8"/><path d="M1633.8 1110.9H1647.8M1640.8 1103.9V1117.9"/><path d="M1716.5 1119.4H1730.5M1723.5 1112.4V1126.4"/><path d="M1803.5 1108.8H1817.5M1810.5 1101.8V1115.8"/><path d="M1880.8 1119.8H1894.8M1887.8 1112.8V1126.8"/><path d="M1963.6 1109.7H1977.6M1970.6 1102.7V1116.7"/></g>
  <rect x="0" y="346.8" width="1920" height="300" fill="url(#band)"/>
  <g><circle cx="0" cy="266.1" r="2.4" fill="#0E70F7" fill-opacity="0.090"/><circle cx="93.2" cy="257.9" r="2.3" fill="#0E70F7" fill-opacity="0.065"/><circle cx="248" cy="264.5" r="2.4" fill="#0E70F7" fill-opacity="0.085"/><circle cx="349.2" cy="255.5" r="2.2" fill="#0E70F7" fill-opacity="0.058"/><circle cx="435.6" cy="266.5" r="2.4" fill="#0E70F7" fill-opacity="0.091"/><circle cx="600.5" cy="264.5" r="2.4" fill="#0E70F7" fill-opacity="0.085"/><circle cx="695.4" cy="267.6" r="2.4" fill="#0E70F7" fill-opacity="0.095"/><circle cx="768.1" cy="261.9" r="2.3" fill="#0E70F7" fill-opacity="0.077"/><circle cx="851.4" cy="255.3" r="2.2" fill="#0E70F7" fill-opacity="0.057"/><circle cx="947.5" cy="260.5" r="2.3" fill="#0E70F7" fill-opacity="0.073"/><circle cx="1040" cy="257.3" r="2.3" fill="#0E70F7" fill-opacity="0.063"/><circle cx="1121.8" cy="257.9" r="2.3" fill="#0E70F7" fill-opacity="0.065"/><circle cx="1199.1" cy="263.1" r="2.3" fill="#0E70F7" fill-opacity="0.081"/><circle cx="1295" cy="265.9" r="2.4" fill="#0E70F7" fill-opacity="0.090"/><circle cx="1371.7" cy="264.1" r="2.4" fill="#0E70F7" fill-opacity="0.084"/><circle cx="1451.3" cy="255.9" r="2.3" fill="#0E70F7" fill-opacity="0.059"/><circle cx="1552.3" cy="250" r="2.2" fill="#0E70F7" fill-opacity="0.041"/><circle cx="1712.2" cy="269.1" r="2.4" fill="#0E70F7" fill-opacity="0.099"/><circle cx="1798.3" cy="253.7" r="2.2" fill="#0E70F7" fill-opacity="0.052"/><circle cx="1893.5" cy="252.8" r="2.2" fill="#0E70F7" fill-opacity="0.049"/><circle cx="1985.8" cy="257.8" r="2.3" fill="#0E70F7" fill-opacity="0.065"/><circle cx="-7.5" cy="334.4" r="3.3" fill="#0E70F7" fill-opacity="0.300"/><circle cx="95.4" cy="352.9" r="3.5" fill="#0E70F7" fill-opacity="0.357"/><circle cx="175" cy="342.4" r="3.4" fill="#0E70F7" fill-opacity="0.325"/><circle cx="248.9" cy="354" r="3.5" fill="#0E70F7" fill-opacity="0.361"/><circle cx="345" cy="340.5" r="3.4" fill="#0E70F7" fill-opacity="0.319"/><circle cx="432.6" cy="353" r="3.5" fill="#0E70F7" fill-opacity="0.357"/><circle cx="510.5" cy="354.9" r="3.5" fill="#0E70F7" fill-opacity="0.363"/><circle cx="590.9" cy="341.5" r="3.4" fill="#0E70F7" fill-opacity="0.322"/><circle cx="697" cy="337.4" r="3.3" fill="#0E70F7" fill-opacity="0.310"/><circle cx="775" cy="345.6" r="3.4" fill="#0E70F7" fill-opacity="0.335"/><circle cx="853.7" cy="338.9" r="3.3" fill="#0E70F7" fill-opacity="0.314"/><circle cx="941.5" cy="348.9" r="3.5" fill="#0E70F7" fill-opacity="0.345"/><circle cx="1040.3" cy="339.1" r="3.3" fill="#0E70F7" fill-opacity="0.315"/><circle cx="1112.5" cy="342.5" r="3.4" fill="#0E70F7" fill-opacity="0.325"/><circle cx="1200.4" cy="347.1" r="3.4" fill="#0E70F7" fill-opacity="0.339"/><circle cx="1284.7" cy="341.3" r="3.4" fill="#0E70F7" fill-opacity="0.322"/><circle cx="1378.7" cy="343.5" r="3.4" fill="#0E70F7" fill-opacity="0.328"/><circle cx="1467.3" cy="344.3" r="3.4" fill="#0E70F7" fill-opacity="0.331"/><circle cx="1552.6" cy="343.7" r="3.4" fill="#0E70F7" fill-opacity="0.329"/><circle cx="1643.8" cy="345.4" r="3.4" fill="#0E70F7" fill-opacity="0.334"/><circle cx="1709.8" cy="348.4" r="3.5" fill="#0E70F7" fill-opacity="0.343"/><circle cx="1810" cy="340.7" r="3.4" fill="#0E70F7" fill-opacity="0.320"/><circle cx="1895.2" cy="340.5" r="3.4" fill="#0E70F7" fill-opacity="0.319"/><circle cx="1981.9" cy="341" r="3.4" fill="#0E70F7" fill-opacity="0.321"/><circle cx="1.2" cy="430.6" r="4.5" fill="#0E70F7" fill-opacity="0.596"/><circle cx="84.8" cy="431.3" r="4.5" fill="#0E70F7" fill-opacity="0.598"/><circle cx="173.1" cy="433.6" r="4.6" fill="#0E70F7" fill-opacity="0.606"/><circle cx="259.5" cy="432.9" r="4.6" fill="#0E70F7" fill-opacity="0.603"/><circle cx="334.7" cy="437.4" r="4.6" fill="#0E70F7" fill-opacity="0.617"/><circle cx="430.5" cy="422.3" r="4.4" fill="#0E70F7" fill-opacity="0.571"/><circle cx="521.4" cy="430.2" r="4.5" fill="#0E70F7" fill-opacity="0.595"/><circle cx="604.7" cy="419.5" r="4.4" fill="#0E70F7" fill-opacity="0.562"/><circle cx="699.1" cy="433.2" r="4.6" fill="#0E70F7" fill-opacity="0.604"/><circle cx="768.2" cy="419.1" r="4.4" fill="#0E70F7" fill-opacity="0.561"/><circle cx="861.3" cy="428.5" r="4.5" fill="#0E70F7" fill-opacity="0.590"/><circle cx="936.1" cy="439" r="4.6" fill="#0E70F7" fill-opacity="0.622"/><circle cx="1026" cy="422.2" r="4.4" fill="#0E70F7" fill-opacity="0.570"/><circle cx="1112" cy="422.5" r="4.4" fill="#0E70F7" fill-opacity="0.571"/><circle cx="1194.4" cy="436.8" r="4.6" fill="#0E70F7" fill-opacity="0.615"/><circle cx="1280.1" cy="428.8" r="4.5" fill="#0E70F7" fill-opacity="0.591"/><circle cx="1381.3" cy="439" r="4.6" fill="#0E70F7" fill-opacity="0.622"/><circle cx="1450.8" cy="439.9" r="4.7" fill="#0E70F7" fill-opacity="0.625"/><circle cx="1556.6" cy="439.5" r="4.7" fill="#0E70F7" fill-opacity="0.624"/><circle cx="1642.4" cy="431.9" r="4.6" fill="#0E70F7" fill-opacity="0.600"/><circle cx="1720.9" cy="440.8" r="4.7" fill="#0E70F7" fill-opacity="0.628"/><circle cx="1803" cy="434.8" r="4.6" fill="#0E70F7" fill-opacity="0.609"/><circle cx="1890.2" cy="429.1" r="4.5" fill="#0E70F7" fill-opacity="0.592"/><circle cx="1984.5" cy="430.2" r="4.5" fill="#0E70F7" fill-opacity="0.595"/><circle cx="1.3" cy="507.1" r="5.3" fill="#0E70F7" fill-opacity="0.768"/><circle cx="90.8" cy="505.7" r="5.3" fill="#0E70F7" fill-opacity="0.772"/><circle cx="166.5" cy="519.8" r="5.1" fill="#0E70F7" fill-opacity="0.729"/><circle cx="260.1" cy="522.6" r="5.1" fill="#0E70F7" fill-opacity="0.721"/><circle cx="347.2" cy="521.4" r="5.1" fill="#0E70F7" fill-opacity="0.724"/><circle cx="440.5" cy="515.6" r="5.2" fill="#0E70F7" fill-opacity="0.742"/><circle cx="520.3" cy="506.5" r="5.3" fill="#0E70F7" fill-opacity="0.770"/><circle cx="609.3" cy="516.9" r="5.1" fill="#0E70F7" fill-opacity="0.738"/><circle cx="695.4" cy="522" r="5.1" fill="#0E70F7" fill-opacity="0.723"/><circle cx="781.4" cy="517.8" r="5.1" fill="#0E70F7" fill-opacity="0.735"/><circle cx="854.1" cy="526.7" r="5" fill="#0E70F7" fill-opacity="0.708"/><circle cx="950.1" cy="525.3" r="5" fill="#0E70F7" fill-opacity="0.712"/><circle cx="1036.3" cy="507.9" r="5.3" fill="#0E70F7" fill-opacity="0.766"/><circle cx="1114.7" cy="508.4" r="5.2" fill="#0E70F7" fill-opacity="0.764"/><circle cx="1214.4" cy="521.8" r="5.1" fill="#0E70F7" fill-opacity="0.723"/><circle cx="1279.2" cy="523.9" r="5" fill="#0E70F7" fill-opacity="0.717"/><circle cx="1365" cy="505.9" r="5.3" fill="#0E70F7" fill-opacity="0.772"/><circle cx="1457.4" cy="515.5" r="5.2" fill="#0E70F7" fill-opacity="0.742"/><circle cx="1552.9" cy="521.8" r="5.1" fill="#0E70F7" fill-opacity="0.723"/><circle cx="1639" cy="513.2" r="5.2" fill="#0E70F7" fill-opacity="0.750"/><circle cx="1715.8" cy="524.3" r="5" fill="#0E70F7" fill-opacity="0.715"/><circle cx="1813.8" cy="507.4" r="5.3" fill="#0E70F7" fill-opacity="0.767"/><circle cx="1886.4" cy="513.8" r="5.2" fill="#0E70F7" fill-opacity="0.748"/><circle cx="1971.2" cy="522.4" r="5.1" fill="#0E70F7" fill-opacity="0.721"/><circle cx="-0.5" cy="591.8" r="4.2" fill="#0E70F7" fill-opacity="0.508"/><circle cx="93.6" cy="591.8" r="4.2" fill="#0E70F7" fill-opacity="0.508"/><circle cx="177.8" cy="596" r="4.1" fill="#0E70F7" fill-opacity="0.495"/><circle cx="257.6" cy="590.9" r="4.2" fill="#0E70F7" fill-opacity="0.510"/><circle cx="341.9" cy="601.7" r="4" fill="#0E70F7" fill-opacity="0.477"/><circle cx="435.2" cy="604.7" r="4" fill="#0E70F7" fill-opacity="0.468"/><circle cx="506.9" cy="612.1" r="3.9" fill="#0E70F7" fill-opacity="0.445"/><circle cx="610.6" cy="595.6" r="4.1" fill="#0E70F7" fill-opacity="0.496"/><circle cx="689.6" cy="596.8" r="4.1" fill="#0E70F7" fill-opacity="0.492"/><circle cx="774.8" cy="608.4" r="3.9" fill="#0E70F7" fill-opacity="0.456"/><circle cx="866.3" cy="602.9" r="4" fill="#0E70F7" fill-opacity="0.474"/><circle cx="948.5" cy="595.2" r="4.1" fill="#0E70F7" fill-opacity="0.497"/><circle cx="1032.6" cy="600.1" r="4" fill="#0E70F7" fill-opacity="0.482"/><circle cx="1107.2" cy="598.7" r="4.1" fill="#0E70F7" fill-opacity="0.487"/><circle cx="1209.7" cy="598.7" r="4.1" fill="#0E70F7" fill-opacity="0.486"/><circle cx="1301.1" cy="592.7" r="4.1" fill="#0E70F7" fill-opacity="0.505"/><circle cx="1366.9" cy="594.9" r="4.1" fill="#0E70F7" fill-opacity="0.498"/><circle cx="1455.5" cy="603.2" r="4" fill="#0E70F7" fill-opacity="0.473"/><circle cx="1542.6" cy="591.1" r="4.2" fill="#0E70F7" fill-opacity="0.510"/><circle cx="1627.1" cy="600.7" r="4" fill="#0E70F7" fill-opacity="0.480"/><circle cx="1714.7" cy="604.1" r="4" fill="#0E70F7" fill-opacity="0.470"/><circle cx="1816.3" cy="602.7" r="4" fill="#0E70F7" fill-opacity="0.474"/><circle cx="1890.6" cy="592" r="4.2" fill="#0E70F7" fill-opacity="0.507"/><circle cx="1985.7" cy="609.3" r="3.9" fill="#0E70F7" fill-opacity="0.454"/><circle cx="9.3" cy="682.6" r="3" fill="#0E70F7" fill-opacity="0.228"/><circle cx="83.2" cy="680.9" r="3" fill="#0E70F7" fill-opacity="0.233"/><circle cx="182.3" cy="678.5" r="3" fill="#0E70F7" fill-opacity="0.241"/><circle cx="248.8" cy="680.4" r="3" fill="#0E70F7" fill-opacity="0.235"/><circle cx="340.1" cy="681.4" r="3" fill="#0E70F7" fill-opacity="0.232"/><circle cx="422.5" cy="698.3" r="2.8" fill="#0E70F7" fill-opacity="0.180"/><circle cx="507.3" cy="688.2" r="2.9" fill="#0E70F7" fill-opacity="0.211"/><circle cx="597.6" cy="684.5" r="2.9" fill="#0E70F7" fill-opacity="0.222"/><circle cx="698" cy="690.7" r="2.9" fill="#0E70F7" fill-opacity="0.203"/><circle cx="784.2" cy="691.7" r="2.9" fill="#0E70F7" fill-opacity="0.200"/><circle cx="868" cy="690.4" r="2.9" fill="#0E70F7" fill-opacity="0.204"/><circle cx="943.8" cy="691.3" r="2.9" fill="#0E70F7" fill-opacity="0.201"/><circle cx="1039.2" cy="696.7" r="2.8" fill="#0E70F7" fill-opacity="0.185"/><circle cx="1117.7" cy="678.7" r="3" fill="#0E70F7" fill-opacity="0.240"/><circle cx="1194.5" cy="678.5" r="3" fill="#0E70F7" fill-opacity="0.241"/><circle cx="1285.9" cy="682.1" r="3" fill="#0E70F7" fill-opacity="0.230"/><circle cx="1381.4" cy="685.2" r="2.9" fill="#0E70F7" fill-opacity="0.220"/><circle cx="1456.9" cy="684.9" r="2.9" fill="#0E70F7" fill-opacity="0.221"/><circle cx="1545.3" cy="696.4" r="2.8" fill="#0E70F7" fill-opacity="0.186"/><circle cx="1630.1" cy="691.5" r="2.9" fill="#0E70F7" fill-opacity="0.201"/><circle cx="1719.3" cy="685.4" r="2.9" fill="#0E70F7" fill-opacity="0.220"/><circle cx="1813.2" cy="694.6" r="2.8" fill="#0E70F7" fill-opacity="0.192"/><circle cx="1890.3" cy="697.3" r="2.8" fill="#0E70F7" fill-opacity="0.183"/><circle cx="1982.3" cy="686.5" r="2.9" fill="#0E70F7" fill-opacity="0.216"/></g>
  <rect width="1920" height="1080" fill="url(#vignette)"/>
  <rect width="1920" height="1080" fill="url(#legibility)"/>
</svg>
